# xmcd
#
# Track frame offsets: 
#        150
#        14814
#        26465
#        39272
#        49143
#        59715
#        72347
#        81855
#        94917
#        103970
#
# Disc length: 1541 seconds
#
# Revision: 0
# Processed by: cddbd v1.5.1PL0 Copyright (c) Steve Scherf et al.
# Submitted via: ExactAudioCopy v0.95a5
#
DISCID=8b06030a
DTITLE=Red Simpson - I'm A Truck
DYEAR=1900
DGENRE=Country
TTITLE0=I'm a Truck
TTITLE1=Nitro Express
TTITLE2=Old Sam
TTITLE3=Runaway Truck
TTITLE4=Black Smoke A Blowin' Over 18 Wheels
TTITLE5=Roll, Truck, Roll
TTITLE6=Big Mack
TTITLE7=Where Love Used To Be
TTITLE8=Motivatin' Man
TTITLE9=Take Me Home
EXTD=(c)Capitol Records, Inc. - EMI\nKatalog: SM-881\n\nProduced by Ke
EXTD=n Nelson, except (1),(8) produced by Gene Breeden of Portland Lim
EXTD=ited\n
EXTT0=Songwriter: Bob Stanton
EXTT1=Songwriter: Roberts - Turner - Thornton
EXTT2=Songwriter: J. Thornton - S. Turner
EXTT3=Songwriter: Red Simpson - Buck Owens
EXTT4=Songwriter: Red Simpson
EXTT5=Songwriter: Tommy Collins
EXTT6=Songwriter: June Davis
EXTT7=Songwriter: Red Simpson
EXTT8=Songwriter: Red Simpson - Buck Owens
EXTT9=Songwriter: Red Simpson - G. Moles
PLAYORDER=
